<svg xmlns="http://www.w3.org/2000/svg" id="Layer_1" data-name="Layer 1" viewBox="0 0 157.02 39.08">
  <defs>
    <style>
      .cls-1 {
        fill: #003dff;
      }
    </style>
  </defs>
  <g>
    <g>
      <path class="cls-1" d="M69.88,26.77A9.42,9.42,0,0,1,63.76,29a9.27,9.27,0,1,1,.1-18.54,9.44,9.44,0,0,1,6,2.3l-3.35,3.32a4.59,4.59,0,0,0-2.74-.9,4.67,4.67,0,0,0-3.24,1.29,4.56,4.56,0,0,0-1.33,3.24A4.37,4.37,0,0,0,60.55,23a4.75,4.75,0,0,0,3.24,1.37,4.56,4.56,0,0,0,2.73-.9Z" transform="translate(-1.49 -0.46)"/>
      <path class="cls-1" d="M76.57,29h-5V4h5Z" transform="translate(-1.49 -0.46)"/>
      <path class="cls-1" d="M96.55,19.68a9.25,9.25,0,1,1-9.29-9.22A9.25,9.25,0,0,1,96.55,19.68Zm-4.68,0a4.56,4.56,0,0,0-1.37-3.24,4.63,4.63,0,0,0-3.24-1.29,4.43,4.43,0,0,0-3.2,1.33A4.57,4.57,0,1,0,90.54,23,4.56,4.56,0,0,0,91.87,19.71Z" transform="translate(-1.49 -0.46)"/>
      <path class="cls-1" d="M98,10.39h4.68v9.36c0,1.22.82,4.53,4.21,4.53,3.71,0,4.21-3.35,4.21-4.57V10.39h5V29h-5V27.05A5.66,5.66,0,0,1,106.59,29,8.62,8.62,0,0,1,98,20.11Z" transform="translate(-1.49 -0.46)"/>
      <path class="cls-1" d="M131.68,15.5h-4.13V29h-5V15.5h-4.17v-5h4.17V4h5v6.48h4.13Z" transform="translate(-1.49 -0.46)"/>
      <path class="cls-1" d="M138.89,29h-5V4h5Z" transform="translate(-1.49 -0.46)"/>
      <path class="cls-1" d="M151.2,29.83A10,10,0,0,1,141.76,36V31a5,5,0,0,0,2.24-.47,4.85,4.85,0,0,0,2.37-2.27l1-2.77-6.33-15h5.54l3.35,8.1,3-8.1h5.58Z" transform="translate(-1.49 -0.46)"/>
    </g>
    <g>
      <path class="cls-1" d="M15.42,5C23.3-2.79,36-.17,39.71,10.07a13.84,13.84,0,0,1-3,14.86s-8.72,8.58-13.11,13l-1.8,1.66c-.1-3.15-.22-5.83-.28-8.51-.05-2.48-.1-2.52-2.35-1.66l-5.3,2-6,2.13,4.59-13.76-11-.52M34.6,22.18a10,10,0,0,0,2.6-7.89,10.88,10.88,0,0,0-7.43-9.76A10.68,10.68,0,0,0,18.25,7l-7.39,7.39s-1.43,1.67-1.43,1.65c.87.07,1.9.11,2.55.13,3.47.11,4.8,2.09,3.56,5.28-.4,1-.8,2.08-1.18,3.12s-.67,1.87-1.19,3.36c2.64-1,4.69-1.78,6.75-2.53,2.79-1,4.75.26,5,3.24.08.83.12,1.67.18,2.71" transform="translate(-1.49 -0.46)"/>
      <circle class="cls-1" cx="18.97" cy="14.43" r="2.04"/>
      <circle class="cls-1" cx="24.73" cy="14.54" r="2.04"/>
      <circle class="cls-1" cx="30.44" cy="14.43" r="2.04"/>
    </g>
  </g>
</svg>