<svg xmlns="http://www.w3.org/2000/svg" viewBox="0 0 120 61" fill="none">
  <path fill-rule="evenodd" clip-rule="evenodd" d="M73.9929 29.3009C73.989 23.9342 70.296 19.7102 64.8619 19.7144C59.3604 19.7183 55.674 23.9479 55.6779 29.3146C55.6822 34.7487 59.3751 39.1065 64.8764 39.1025C70.3108 39.0983 73.9972 34.735 73.9929 29.3009ZM81.7082 29.2951C81.7154 38.9559 74.4756 46.1393 64.8819 46.1467C55.2211 46.1541 47.9703 38.9814 47.9629 29.3206C47.9555 19.727 55.1959 12.6773 64.8566 12.6699C74.45 12.6628 81.7009 19.7017 81.7082 29.2951Z" fill="#00303C"/>
  <path fill-rule="evenodd" clip-rule="evenodd" d="M44.8222 45.6431L37.04 45.6425L37.044 0L44.8259 0.000526588L44.8222 45.6431Z" fill="#00303C"/>
  <path fill-rule="evenodd" clip-rule="evenodd" d="M101.501 39.1103C95.9995 39.1119 92.3084 34.7523 92.3068 29.3184C92.3053 23.9515 95.9937 19.7237 101.495 19.7222C106.929 19.7206 110.62 23.9462 110.622 29.3129C110.623 34.747 106.935 39.1088 101.501 39.1103ZM101.493 12.6777C91.8324 12.6806 84.5889 19.7272 84.5918 29.3205C84.5918 29.3282 84.5923 29.3356 84.5923 29.3432L84.5918 29.3429L84.601 61.0006L92.3832 60.9982L92.3782 43.6701C94.9766 45.2562 98.0877 46.1556 101.503 46.1545C111.097 46.1516 118.34 38.9716 118.337 29.3105C118.334 19.7172 111.087 12.6751 101.493 12.6777Z" fill="#00303C"/>
  <path fill-rule="evenodd" clip-rule="evenodd" d="M16.8797 19.7083C21.3599 19.696 24.6597 22.5606 25.6897 26.5738L8.04141 26.623C9.05061 22.6041 12.3442 19.721 16.8797 19.7083ZM33.4767 32.4418C33.6536 31.4152 33.7484 30.352 33.7455 29.2549C33.7186 19.6615 26.4536 12.6374 16.8602 12.6641C7.19939 12.6911 -0.0264468 19.7555 7.27595e-05 29.3489C0.0270019 39.0097 7.2926 46.1676 16.9534 46.1408C23.907 46.1213 29.6139 42.3324 32.2194 36.5705L23.1605 36.5958C21.5903 38.1458 19.4515 39.0895 16.9336 39.0966C12.5635 39.1087 9.33129 36.3649 8.17832 32.5124L33.4767 32.4418Z" fill="#00303C"/>
  
  </svg>