<svg xmlns="http://www.w3.org/2000/svg" width="154" height="30" viewBox="0 0 154 30" fill="none">
<path d="M54.3938 23.2278C59.6719 23.2278 62.7203 20.3686 62.7203 16.6908C62.7203 13.3462 60.2479 11.4908 56.8992 10.7627L53.2501 9.97281C50.897 9.42566 49.6011 8.54529 49.6011 6.78042C49.6011 4.92505 51.5305 3.67854 54.0976 3.67854C57.1131 3.67854 58.8656 5.29119 59.0178 7.6032H62.3048C62.0539 3.58392 59.0672 0.93457 54.2128 0.93457C49.6587 0.93457 46.3059 3.4893 46.3059 7.04783C46.3059 10.3636 48.9305 12.2766 52.1887 12.976L55.5087 13.7041C57.9523 14.2225 59.4333 15.1316 59.4333 17.0199C59.4333 19.2414 57.5327 20.5167 54.4843 20.5167C51.4359 20.5167 49.054 18.7519 48.8729 15.7117H45.5859C45.7382 20.3028 49.0869 23.2237 54.3979 23.2237L54.3938 23.2278Z" fill="#1C0E38"/>
<path d="M65.3008 5.43929H68.6207V2.03298H65.3008V5.43929ZM65.4818 8.02282V22.7424H68.4685V8.02282H65.4818Z" fill="#1C0E38"/>
<path d="M75.0531 22.7424V14.1361C75.0531 11.7336 76.349 9.9399 78.373 9.9399C80.3971 9.9399 81.1499 11.462 81.1499 14.0168V22.7465H84.1654V14.0497C84.1654 11.7377 85.4325 9.94401 87.4524 9.94401C89.4723 9.94401 90.291 11.4332 90.291 13.988V22.7465H93.2777V13.4408C93.2777 9.57788 91.1343 7.5415 88.2094 7.5415C86.0989 7.5415 84.3793 8.78801 83.4414 10.3677C82.7173 8.66459 81.1499 7.5415 79.2781 7.5415C77.2582 7.5415 75.8389 8.66871 75.0243 10.0674C75.0531 9.7013 75.0531 9.33927 75.0531 9.00193V8.02694H72.0664V22.7465H75.0531V22.7424Z" fill="#1C0E38"/>
<path d="M99.7015 29.0654V22.0101C99.7015 21.5864 99.7015 21.1873 99.6727 20.7019C100.607 22.1911 102.145 23.2278 104.379 23.2278C108.271 23.2278 111.076 20.0971 111.076 15.3826C111.076 10.6681 108.542 7.53738 104.47 7.53738C102.236 7.53738 100.516 8.66459 99.6727 10.0633C99.7015 9.63958 99.7015 9.30224 99.7015 8.93611V8.02282H96.7148V29.0654H99.7015ZM103.774 20.8541C101.302 20.8541 99.5493 18.6326 99.5493 15.3785C99.5493 12.1244 101.331 9.93578 103.774 9.93578C106.337 9.93578 107.97 12.1573 107.97 15.3785C107.97 18.5997 106.313 20.8541 103.774 20.8541Z" fill="#1C0E38"/>
<path d="M113.762 1.45704V22.7424H116.748V1.45704H113.762Z" fill="#1C0E38"/>
<path d="M120.168 5.43929H123.488V2.03298H120.168V5.43929ZM120.349 8.02282V22.7424H123.336V8.02282H120.349Z" fill="#1C0E38"/>
<path d="M131.153 10.4583H134.202V8.02694H131.153V5.68613C131.153 4.3162 131.939 3.58804 133.206 3.58804C133.597 3.58804 133.93 3.64975 134.202 3.71145V1.2102C133.868 1.08678 133.268 0.93457 132.544 0.93457C130.071 0.93457 128.138 2.57602 128.138 5.6779V8.01871H125.332V10.45H128.138V22.7341H131.153V10.45V10.4583Z" fill="#1C0E38"/>
<path d="M140.071 23.2278C142.362 23.2278 143.934 22.224 144.658 20.7348C144.629 21.1914 144.596 21.6152 144.596 22.043V22.7424H147.431V13.4655C147.431 9.78768 145.468 7.53738 141.515 7.53738C137.804 7.53738 135.57 9.84939 135.422 12.6756H138.471C138.561 10.9725 139.709 9.84939 141.729 9.84939C143.387 9.84939 144.473 10.7915 144.473 12.1902C144.473 13.013 144.082 13.4079 142.934 13.5889L140.186 14.0127C137.381 14.4364 135.027 15.687 135.027 18.6943C135.027 21.5205 137.352 23.2237 140.067 23.2237L140.071 23.2278ZM140.676 20.9158C139.256 20.9158 138.113 20.093 138.113 18.6367C138.113 17.1804 139.38 16.4769 141.099 16.1437L142.848 15.8104C143.753 15.6294 144.267 15.4443 144.506 15.1728V17.1187C144.506 19.3978 142.848 20.9199 140.676 20.9199V20.9158Z" fill="#1C0E38"/>
<path d="M150.68 5.43929H154V2.03298H150.68V5.43929ZM150.861 8.02282V22.7424H153.847V8.02282H150.861Z" fill="#1C0E38"/>
<path d="M23.3135 7.90763C23.9388 7.13011 24.9878 5.826 27.0571 5.826C30.0356 5.826 32.253 7.77188 32.903 10.738C32.1872 13.6959 29.5214 15.9051 26.3454 15.9051H23.8853V17.3614H26.3454C28.9125 17.3614 31.2081 16.1766 32.7138 14.3253C31.7881 16.95 29.2869 18.8424 26.3495 18.8424H21.7749V20.3028H26.3495C28.9125 20.2987 31.2039 19.118 32.7096 17.2709C31.7799 19.8914 29.2827 21.7756 26.3495 21.7756H19.4752V23.2319H26.3495C30.8789 23.2319 34.5609 19.55 34.5609 15.0206V12.5769C34.5609 12.4864 34.5527 12.3959 34.5485 12.3054C34.5485 12.2313 34.5609 12.1573 34.5609 12.0832V9.14592C34.5609 4.61651 30.8748 0.93457 26.3454 0.93457C23.5315 0.93457 21.528 2.59659 20.7917 3.57981L11.2474 16.2589C10.6221 17.0364 9.57305 18.3405 7.50375 18.3405C4.52529 18.3405 2.3079 16.3946 1.6579 13.4285C2.37372 10.4706 5.03953 8.26143 8.21546 8.26143H10.6756V6.80511H8.21546C5.64839 6.80511 3.35283 7.98991 1.84714 9.84117C2.77277 7.2165 5.27402 5.3241 8.21134 5.3241H12.786V3.86367H8.21134C5.64838 3.86367 3.35694 5.04847 1.85126 6.89561C2.781 4.27506 5.27813 2.39089 8.21134 2.39089H15.0857V0.93457H8.21134C3.68194 0.93457 0 4.61651 0 9.14592V11.5896C0 11.6801 0.0082273 11.7706 0.0123412 11.8611C0.0123412 11.9351 0 12.0092 0 12.0832V15.0206C0 19.55 3.68606 23.2319 8.21546 23.2319C11.0294 23.2319 13.0328 21.5699 13.7692 20.5867L23.3135 7.90763ZM27.0571 4.36968C24.2885 4.36968 22.861 6.14277 22.1616 7.01492L12.6009 19.7145C12.0661 20.4304 10.4575 21.7797 8.21134 21.7797C5.19585 21.7797 2.63701 19.7968 1.76897 17.0611C3.11422 18.7683 5.12592 19.805 7.49553 19.805C10.2642 19.805 11.6917 18.0319 12.3911 17.1598L21.9518 4.46018C22.4866 3.74848 24.0951 2.39912 26.3413 2.39912C29.3568 2.39912 31.9157 4.38202 32.7837 7.11776C31.4426 5.4105 29.4267 4.37379 27.0571 4.37379V4.36968Z" fill="#1C0E38"/>
</svg>