<!-- <svg xmlns="http://www.w3.org/2000/svg" viewBox="0 0 140 24">
  <defs>
      <path id="a" d="M0 23.385h139.574V0H0z"/>
  </defs>
  <g fill="none">
      <path fill="#29203A"
            d="M69.747 15.163c-.816-.76-1.298-1.706-1.391-2.69l2.058-.555c.149.797.483 1.427 1.002 1.891.52.464 1.187.705 1.985.705.686 0 1.26-.186 1.743-.538.463-.352.705-.798.705-1.354 0-1.057-.798-1.725-2.004-1.984l-1.669-.334c-1.075-.223-1.91-.668-2.503-1.335a3.34 3.34 0 0 1-.909-2.337c-.056-2.189 2.077-4.117 4.45-4.08 1.837.018 3.061.667 3.748 1.54.5.593.741 1.168.87 1.798l-1.983.612c-.13-.52-.427-1.001-.89-1.41-.465-.407-1.02-.612-1.689-.612-.649 0-1.205.186-1.65.575-.463.39-.686.835-.686 1.373 0 .408.148.779.463 1.131.316.334.724.557 1.243.668l1.706.334c2.392.482 3.691 1.891 3.691 3.913 0 1.002-.445 1.965-1.206 2.708-.779.741-2.021 1.242-3.468 1.242-1.52 0-2.818-.5-3.616-1.261M79.569 4.073c0-.39.149-.705.408-.965.26-.278.575-.408.945-.408.39 0 .706.13.965.408.26.26.39.575.39.965 0 .37-.13.686-.39.945-.26.26-.574.408-.965.408-.37 0-.686-.148-.945-.408a1.307 1.307 0 0 1-.408-.945zm.334 12.203h2.059V7.059h-2.06v9.217zM90.385 11.101c0-1.39-.63-2.3-1.966-2.3-.65 0-1.131.205-1.484.631-.37.445-.556 1.002-.556 1.706v5.138H84.32V7.058h2.002v1.243a3.37 3.37 0 0 1 .965-.89c.352-.223.667-.39.946-.464.278-.056.575-.093.852-.093 1.317 0 2.263.501 2.838 1.503a5.06 5.06 0 0 1 1.447-1.15c.5-.241 1.075-.353 1.761-.353 1.132 0 2.022.409 2.56 1.076.538.686.797 1.577.797 2.652v5.694h-2.058v-5.193c0-1.391-.613-2.282-1.967-2.282-.63 0-1.13.205-1.483.631-.371.427-.556 1.002-.556 1.688v5.156h-2.04V11.1zM109.899 13.976a4.655 4.655 0 0 1-1.632 1.762 4.448 4.448 0 0 1-2.393.686c-.556 0-1.223-.148-2.04-.612a2.742 2.742 0 0 1-.945-.89v5.897h-2.059V7.06h2.003v1.427a3.288 3.288 0 0 1 1.54-1.28c.574-.222 1.112-.333 1.557-.333 1.373 0 2.578.612 3.338 1.52.742.91 1.187 2.06 1.187 3.246 0 .835-.185 1.614-.556 2.337m-6.268-.26c.519.557 1.168.835 1.984.835.816 0 1.484-.278 2.003-.835.519-.575.76-1.242.76-2.058 0-.816-.241-1.503-.76-2.077-.52-.557-1.187-.835-2.003-.835-.816 0-1.465.278-1.984.835-.52.574-.78 1.26-.78 2.077 0 .816.26 1.483.78 2.058"/>
      <path fill="#29203A"
            d="M112.296 16.276h2.06V2.218h-2.06zM116.38 4.073c0-.39.15-.705.409-.965.26-.278.574-.408.946-.408.39 0 .705.13.964.408.26.26.39.575.39.965 0 .37-.13.686-.39.945-.26.26-.575.408-.964.408-.372 0-.687-.148-.946-.408a1.307 1.307 0 0 1-.408-.945zm.334 12.203h2.06V7.059h-2.06v9.217zM123.875 16.276h-2.077v-7.4h-1.762V7.058h1.762V5.983c0-1.336.39-2.374 1.02-2.949.65-.575 1.447-.853 2.393-.853.482 0 .87.037 1.15.148v1.743a3.122 3.122 0 0 0-.743-.074c-.352 0-.871.093-1.298.52-.24.26-.445.778-.445 1.446v1.094h2.411v1.818h-2.411v7.4zM132.972 16.276c-.056-.26-.093-.668-.093-1.261-.315.52-.705.871-1.187 1.094-.5.222-1.001.333-1.52.333-.891 0-1.651-.259-2.226-.778-.575-.501-.872-1.15-.872-1.947v-.093c.019-1.28.78-2.059 1.78-2.449a5.417 5.417 0 0 1 2.04-.37h1.15c.575 0 .854-.26.854-.78 0-.389-.149-.723-.464-1-.316-.26-.76-.409-1.354-.409-1.094 0-1.855.612-2.003 1.54l-1.873-.427c.055-.427.26-.89.63-1.391a3.49 3.49 0 0 1 1.447-1.112c.52-.242 1.15-.353 1.873-.353 1.725 0 2.875.63 3.45 1.891.204.446.315.984.315 1.633v4.395c0 .612.018 1.113.056 1.484h-2.003zm-.093-4.025h-1.985a2.27 2.27 0 0 0-1.205.334c-.37.241-.556.557-.556.946 0 .76.593 1.261 1.465 1.261.686 0 1.26-.204 1.67-.612.407-.408.611-.946.611-1.632v-.297zM136.866 4.073c0-.39.149-.705.408-.965.26-.278.575-.408.946-.408.39 0 .705.13.965.408.26.26.39.575.39.965 0 .37-.13.686-.39.945-.26.26-.575.408-.965.408-.37 0-.686-.148-.946-.408a1.307 1.307 0 0 1-.408-.945zm.334 12.203h2.059V7.059H137.2v9.217z"
            mask="url(#b)"/>
      <path fill="#693BAD"
            d="M48.92 11.692a5.057 5.057 0 1 0 10.113 0 5.057 5.057 0 0 0-10.113 0zM44.75 8.308L33.022 20.037l-4.96-4.96L39.79 3.346l4.961 4.961zM11.693 0C5.235 0 0 5.235 0 11.692c0 6.458 5.235 11.693 11.693 11.693 6.457 0 11.692-5.235 11.692-11.693C23.385 5.235 18.15 0 11.693 0zm0 16.748a5.056 5.056 0 1 1-.001-10.112 5.056 5.056 0 0 1 0 10.112z"
            mask="url(#b)"/>
  </g>
</svg> -->

<svg xmlns="http://www.w3.org/2000/svg" viewBox="0 0 60 24">
  <g fill="none">
      <path fill="#693BAD" d="M48.92 11.692a5.057 5.057 0 1 0 10.113 0 5.057 5.057 0 0 0-10.113 0zM44.75 8.308L33.022 20.037l-4.96-4.96L39.79 3.346l4.961 4.961zM11.693 0C5.235 0 0 5.235 0 11.692c0 6.458 5.235 11.693 11.693 11.693 6.457 0 11.692-5.235 11.692-11.693C23.385 5.235 18.15 0 11.693 0zm0 16.748a5.056 5.056 0 1 1-.001-10.112 5.056 5.056 0 0 1 0 10.112z" mask="url(#b)"/>
  </g>
</svg>